<?xml version="1.0" encoding="utf-8"?>
<!-- Generator: Adobe Illustrator 27.3.1, SVG Export Plug-In . SVG Version: 6.00 Build 0)  -->
<svg version="1.1" id="Слой_1" xmlns="http://www.w3.org/2000/svg" xmlns:xlink="http://www.w3.org/1999/xlink" x="0px" y="0px"
	 viewBox="0 0 800 800" style="enable-background:new 0 0 800 800;" xml:space="preserve">
<style type="text/css">
	.st0{fill-rule:evenodd;clip-rule:evenodd;stroke:#FFFFFF;stroke-width:10;stroke-miterlimit:10;}
</style>
<path class="st0" d="M282.1,235c-13-13-34.1-13-47.1,0c-13,13-13,34.1,0,47.1L352.9,400L235,517.9c-13,13-13,34.1,0,47.1
	c13,13,34.1,13,47.1,0L400,447.1L517.9,565c13,13,34.1,13,47.1,0c13-13,13-34.1,0-47.1L447.1,400L565,282.1c13-13,13-34.1,0-47.1
	c-13-13-34.1-13-47.1,0L400,352.9L282.1,235z"/>
</svg>
